<svg width="49" height="49" viewBox="0 0 49 49" fill="none" xmlns="http://www.w3.org/2000/svg">
<path d="M43.8962 20.5034V19.396C43.8962 17.7073 42.5225 16.3335 40.8337 16.3335H30.625V11.229C30.625 10.6652 30.168 10.2081 29.6041 10.2081H26.5415V7.14611C26.5415 6.58232 26.0845 6.12525 25.5207 6.12525H11.6527L9.90958 4.3822C9.51107 3.9836 8.86469 3.9836 8.46599 4.3822L2.63978 10.2081H1.02087C0.457078 10.2082 0 10.6652 0 11.229V39.8125C0 40.3761 0.457078 40.8333 1.02087 40.8333H5.20682C5.36043 41.5873 5.68094 42.2812 6.12768 42.875H4.08327C3.51948 42.875 3.0625 43.3321 3.0625 43.8958C3.0625 44.4595 3.51948 44.9167 4.08337 44.9167H10.2081C10.2107 44.9167 10.2131 44.9163 10.2156 44.9163C12.6771 44.9128 14.7358 43.1579 15.2095 40.8334H29.6041H33.7909C33.9445 41.5874 34.2651 42.2813 34.7118 42.875H32.6673C32.1036 42.875 31.6464 43.3321 31.6464 43.8959C31.6464 44.4597 32.1035 44.9168 32.6673 44.9168H38.792C38.7946 44.9168 38.7971 44.9164 38.7997 44.9164C41.2612 44.9129 43.3198 43.158 43.7936 40.8335H47.9791C48.5429 40.8335 49 40.3764 49 39.8126V30.6251V26.5415C49 23.5122 46.7889 20.9911 43.8962 20.5034ZM24.4999 8.16698V10.2082H15.7358L13.6944 8.16698H24.4999ZM9.18779 6.54768L10.5073 7.86714C10.5078 7.86762 10.5084 7.86819 10.5089 7.86867L12.8484 10.2082H5.52724L9.18779 6.54768ZM10.2083 42.8748C8.51949 42.8748 7.14567 41.501 7.14567 39.8125C7.14567 38.1237 8.51949 36.7498 10.2083 36.7498C11.8969 36.7498 13.2706 38.1237 13.2706 39.8125C13.2705 41.501 11.8968 42.8748 10.2083 42.8748ZM28.5833 17.3544V34.7084H21.6407C21.0769 34.7084 20.6198 35.1655 20.6198 35.7293C20.6198 36.2931 21.0768 36.7501 21.6407 36.7501H28.5833V38.7918H15.2095C14.7353 36.4647 12.6731 34.7083 10.2083 34.7083C7.74344 34.7083 5.68094 36.4648 5.20673 38.7918H2.04163V22.4584H6.12481C6.6885 22.4584 7.14567 22.0014 7.14567 21.4376C7.14567 20.8738 6.6886 20.4167 6.12481 20.4167H2.04163V18.3751H14.2913C14.8551 18.3751 15.3122 17.9182 15.3122 17.3543C15.3122 16.7905 14.8552 16.3334 14.2913 16.3334H2.04163V12.2497H3.06183C3.0624 12.2497 3.06298 12.2497 3.06346 12.2497H28.5833V17.3544ZM33.7909 38.7917H30.625V36.75H34.7116C34.2648 37.3439 33.9444 38.0377 33.7909 38.7917ZM41.8545 39.8158C41.8527 41.503 40.4796 42.8748 38.7922 42.8748C37.1035 42.8748 35.7296 41.501 35.7296 39.8125C35.7296 38.1263 37.0992 36.7543 38.7844 36.75H38.792C38.793 36.75 38.7938 36.7499 38.7947 36.7499C40.4811 36.7512 41.8527 38.1228 41.8545 39.8092C41.8545 39.8103 41.8544 39.8113 41.8544 39.8125C41.8544 39.8136 41.8545 39.8147 41.8545 39.8158ZM46.9584 38.7917H43.7936C43.3193 36.4646 41.257 34.7082 38.7922 34.7082C38.7895 34.7082 38.7869 34.7084 38.7844 34.7084H30.6249V18.3752H40.8337C41.3967 18.3752 41.8546 18.8332 41.8546 19.3961V20.4169H34.7088C34.1452 20.4169 33.688 20.8739 33.688 21.4377V30.6251C33.688 31.1888 34.1451 31.6459 34.7088 31.6459H46.9584V38.7917ZM37.7714 22.4584V29.6041H35.7297V22.4584H37.7714ZM46.9584 29.6041H39.8131V22.4584H42.8755C45.1268 22.4584 46.9584 24.29 46.9584 26.5414V29.6041Z" fill="#06A8A8"/>
<path d="M17.6474 36.7501H18.2846C18.8483 36.7501 19.3054 36.293 19.3054 35.7292C19.3054 35.1655 18.8484 34.7084 18.2846 34.7084H17.6474C17.0836 34.7084 16.6265 35.1655 16.6265 35.7292C16.6265 36.293 17.0837 36.7501 17.6474 36.7501Z" fill="#06A8A8"/>
<path d="M17.6474 18.3753H18.2846C18.8483 18.3753 19.3054 17.9183 19.3054 17.3544C19.3054 16.7906 18.8484 16.3336 18.2846 16.3336H17.6474C17.0836 16.3336 16.6265 16.7905 16.6265 17.3544C16.6266 17.9182 17.0837 18.3753 17.6474 18.3753Z" fill="#06A8A8"/>
</svg>
