<svg width="40" height="57" viewBox="0 0 40 57" fill="none" xmlns="http://www.w3.org/2000/svg">
<path d="M7.99929 56.9875C10.5113 56.9875 12.7541 55.8193 14.2216 54.0001V54.3323C14.2216 54.3332 14.2225 54.3349 14.2225 54.3358C14.2261 55.805 15.4208 57 16.8884 57C16.8902 57 16.891 56.9991 16.8928 56.9991H37.7777C39.0035 56.9991 40 56.0009 40 54.773C40 53.6974 39.2355 52.7989 38.2222 52.5924V40.0711V26.7129V13.3573C38.2222 12.8658 37.8248 12.4669 37.3333 12.4669H29.3384C29.3367 12.4669 29.3358 12.466 29.334 12.466C29.3322 12.466 29.3313 12.4669 29.3295 12.4669H18.6653V2.23053C18.6653 2.22875 18.6662 2.22786 18.6662 2.22608C18.6662 0.999063 17.6697 0 16.4439 0C15.2181 0 14.2216 0.999063 14.2216 2.22608V7.5366L7.34683 0.651795C6.48014 -0.216374 5.07033 -0.216374 4.20454 0.651795C3.78408 1.07208 3.55386 1.63127 3.55386 2.22608C3.55386 2.82088 3.78497 3.37918 4.20454 3.80036L7.37083 6.97029H7.37172L14.2225 13.8311V34.3581L7.61172 40.9803C3.38052 41.1842 1.65107e-07 44.6862 1.65107e-07 48.9745C-0.000888744 53.3929 3.58764 56.9875 7.99929 56.9875ZM26.6673 14.2478H28.4451V16.0277H27.5553H26.6673V14.2478ZM18.6653 14.2478H24.8894V16.9182C24.8894 17.4097 25.2868 17.8086 25.7784 17.8086H27.5553H29.334C29.8256 17.8086 30.2229 17.4097 30.2229 16.9182V14.2478H36.4444V25.8225H18.6653V14.2478ZM28.4451 27.6033V29.3842H27.5553H26.6673V27.6033H28.4451ZM18.6653 27.6033H24.8894V30.2737C24.8894 30.7661 25.2868 31.1642 25.7784 31.1642L27.5544 31.1651H27.5553C27.5553 31.1651 27.5553 31.1651 27.5562 31.1651L29.334 31.1642C29.8256 31.1642 30.2229 30.7661 30.2229 30.2737V27.6033H36.4444V39.1807H29.3429C29.3393 39.1807 29.3367 39.1789 29.334 39.1789C29.3313 39.1789 29.3287 39.1807 29.3251 39.1807H25.7828C25.781 39.1807 25.7801 39.1798 25.7784 39.1798C25.7766 39.1798 25.7757 39.1807 25.7739 39.1807H18.6653V27.6033ZM28.4451 40.9616V42.7398L27.5553 42.7406L26.6673 42.7398V40.9616H28.4451ZM18.6653 40.9616H24.8894V43.6302C24.8894 44.1226 25.2868 44.5206 25.7784 44.5206L27.5544 44.5215H27.5553C27.5553 44.5215 27.5553 44.5215 27.5562 44.5215L29.334 44.5206C29.8256 44.5206 30.2229 44.1226 30.2229 43.6302V40.9616H36.4444V52.5354H18.6653V40.9616ZM15.9995 2.22608C15.9995 1.98032 16.1995 1.78086 16.4439 1.78086C16.6875 1.78086 16.8866 1.97943 16.8884 2.22429C16.8884 2.22518 16.8875 2.22518 16.8875 2.22608V13.3573V26.7129V40.0711V53.4258C16.8875 53.806 17.1266 54.1239 17.4608 54.253C17.5693 54.3011 17.6893 54.3287 17.8155 54.3287H37.7777C37.7786 54.3287 37.7795 54.3278 37.7795 54.3278C38.0231 54.3296 38.2222 54.529 38.2222 54.773C38.2222 55.0179 38.0222 55.2182 37.7777 55.2182H16.8884C16.8875 55.2182 16.8866 55.2182 16.8866 55.2182C16.3968 55.2174 15.9995 54.8193 15.9995 54.3287V2.22608ZM7.9984 5.08168L5.46145 2.5404C5.28901 2.36676 5.28901 2.0845 5.46145 1.91086C5.63479 1.73812 5.91657 1.73812 6.08991 1.91086L8.62686 4.45215L7.9984 5.08168ZM9.25532 6.34075L9.88378 5.71122L14.2216 10.0547V11.3138L9.25532 6.34075ZM14.2216 36.8763V43.9472C13.1381 42.6035 11.6314 41.624 9.906 41.1993L14.2216 36.8763ZM7.99929 42.7406C11.4296 42.7406 14.2216 45.5375 14.2216 48.9737C14.2216 52.4098 11.4296 55.2067 7.99929 55.2067C4.56899 55.2067 1.77693 52.4098 1.77693 48.9737C1.77693 45.5375 4.56899 42.7406 7.99929 42.7406Z" fill="#06A8A8"/>
</svg>
