<svg width="64" height="64" viewBox="0 0 64 64" fill="none" xmlns="http://www.w3.org/2000/svg">
<path d="M50.1301 52.0455L27.7818 4.49606C27.3784 3.63793 26.3558 3.26923 25.4979 3.67263L14.0676 9.04473C13.2095 9.44805 12.8408 10.4707 13.2442 11.3286L35.5925 58.878C35.7941 59.3069 36.1507 59.6138 36.5639 59.7628C36.9771 59.9118 37.4474 59.9032 37.8764 59.7014L49.3065 54.3293C50.1647 53.9262 50.5334 52.9036 50.1301 52.0455ZM37.9696 55.8639L36.5129 52.7646L39.0837 51.5563C39.6559 51.2873 39.9017 50.6056 39.6327 50.0336C39.3637 49.4617 38.6822 49.2159 38.1101 49.4846L35.5392 50.6929L34.1457 47.728L38.3071 45.7722C38.8793 45.5032 39.1251 44.8215 38.8561 44.2495C38.587 43.6778 37.9055 43.4318 37.3334 43.7005L33.172 45.6564L31.7785 42.6915L34.3494 41.4832C34.9216 41.2143 35.1674 40.5325 34.8984 39.9606C34.6296 39.3887 33.948 39.143 33.3757 39.4116L30.8049 40.6199L29.4113 37.655L33.5728 35.6991C34.1449 35.4302 34.3907 34.7484 34.1217 34.1765C33.8527 33.6045 33.1712 33.3588 32.5991 33.6275L28.4377 35.5834L27.0442 32.6185L29.615 31.4102C30.1872 31.1412 30.433 30.4595 30.164 29.8875C29.895 29.3156 29.2135 29.0698 28.6414 29.3386L26.0705 30.5469L24.677 27.582L28.8384 25.6261C29.4106 25.3572 29.6564 24.6754 29.3874 24.1034C29.1185 23.5318 28.437 23.2858 27.8647 23.5545L23.7032 25.51L22.3097 22.5451L24.8805 21.3368C25.4527 21.0679 25.6985 20.3862 25.4295 19.8142C25.1607 19.2423 24.4792 18.9966 23.9069 19.2652L21.336 20.4735L19.9425 17.5086L24.1039 15.5528C24.6761 15.2838 24.9219 14.6021 24.6529 14.0301C24.3839 13.4581 23.7023 13.2124 23.1302 13.4811L18.9689 15.4368L17.0819 11.4219L25.4047 7.51013L46.2926 51.9523L37.9696 55.8639Z" fill="#06A8A8"/>
</svg>
