<svg width="31" height="53" viewBox="0 0 31 53" fill="none" xmlns="http://www.w3.org/2000/svg">
<path d="M26.9912 0H3.55116C1.59832 0 0 1.60969 0 3.57977V49.4187C0 51.3888 1.59832 53 3.55116 53H26.9912C28.944 53 30.5424 51.3918 30.5424 49.4202V3.57977C30.5424 1.60969 28.944 0 26.9912 0ZM11.5217 2.58034H19.0206C19.258 2.58034 19.4503 2.77417 19.4503 3.01494C19.4503 3.2542 19.258 3.44803 19.0206 3.44803H11.5217C11.2844 3.44803 11.0921 3.2542 11.0921 3.01494C11.0921 2.77417 11.2844 2.58034 11.5217 2.58034ZM15.2712 51.2101C14.2903 51.2101 13.4956 50.4091 13.4956 49.4187C13.4956 48.4284 14.2903 47.6288 15.2712 47.6288C16.2521 47.6288 17.0468 48.4284 17.0468 49.4187C17.0468 50.4091 16.2521 51.2101 15.2712 51.2101ZM28.0713 46.375H2.47109V5.67706H28.0713V46.375Z" fill="#06A8A8"/>
</svg>
